<mxfile host="app.diagrams.net" modified="2024-05-24T15:22:09.844Z" agent="Mozilla/5.0 (Windows NT 10.0; Win64; x64) AppleWebKit/537.36 (KHTML, like Gecko) Chrome/125.0.0.0 Safari/537.36" etag="BH1dKt9XdqORrla1CfJr" version="24.4.8" type="google">
  <diagram name="Page-1" id="e7e014a7-5840-1c2e-5031-d8a46d1fe8dd">
    <mxGraphModel grid="0" page="0" gridSize="10" guides="1" tooltips="1" connect="1" arrows="1" fold="1" pageScale="1" pageWidth="1169" pageHeight="826" background="none" math="0" shadow="0">
      <root>
        <mxCell id="0" />
        <mxCell id="1" parent="0" />
        <mxCell id="2" value="購入ユーザー" style="swimlane;whiteSpace=wrap;startSize=23;" vertex="1" parent="1">
          <mxGeometry x="161.5" y="39" width="280" height="1081" as="geometry" />
        </mxCell>
        <mxCell id="hSSvxzXzrcug1TbI-OG9-97" style="edgeStyle=orthogonalEdgeStyle;rounded=0;orthogonalLoop=1;jettySize=auto;html=1;entryX=0.5;entryY=0;entryDx=0;entryDy=0;" edge="1" parent="2" source="yedIy310Sk6GWdL27OD_-42" target="hSSvxzXzrcug1TbI-OG9-96">
          <mxGeometry relative="1" as="geometry" />
        </mxCell>
        <mxCell id="yedIy310Sk6GWdL27OD_-42" value="&lt;font style=&quot;font-size: 11px;&quot;&gt;登録フォームに&lt;/font&gt;&lt;div style=&quot;font-size: 11px;&quot;&gt;&lt;font style=&quot;font-size: 11px;&quot;&gt;必要な情報を&lt;/font&gt;&lt;span style=&quot;background-color: initial;&quot;&gt;入力&lt;/span&gt;&lt;/div&gt;" style="rounded=1;whiteSpace=wrap;html=1;arcSize=40;" vertex="1" parent="2">
          <mxGeometry x="78" y="201" width="120" height="40" as="geometry" />
        </mxCell>
        <mxCell id="hSSvxzXzrcug1TbI-OG9-39" style="edgeStyle=orthogonalEdgeStyle;rounded=0;orthogonalLoop=1;jettySize=auto;html=1;entryX=0.5;entryY=0;entryDx=0;entryDy=0;" edge="1" parent="2" source="hSSvxzXzrcug1TbI-OG9-37" target="hSSvxzXzrcug1TbI-OG9-38">
          <mxGeometry relative="1" as="geometry" />
        </mxCell>
        <mxCell id="hSSvxzXzrcug1TbI-OG9-37" value="" style="ellipse;html=1;shape=startState;fillColor=#000000;strokeColor=#FFFFFF;" vertex="1" parent="2">
          <mxGeometry x="122.88" y="46" width="30" height="30" as="geometry" />
        </mxCell>
        <mxCell id="hSSvxzXzrcug1TbI-OG9-38" value="&lt;font style=&quot;font-size: 11px;&quot;&gt;会員登録画面に&lt;/font&gt;&lt;div&gt;&lt;font style=&quot;font-size: 11px;&quot;&gt;アクセス&lt;/font&gt;&lt;/div&gt;" style="rounded=1;whiteSpace=wrap;html=1;arcSize=40;" vertex="1" parent="2">
          <mxGeometry x="78.75" y="121" width="120" height="40" as="geometry" />
        </mxCell>
        <mxCell id="hSSvxzXzrcug1TbI-OG9-64" style="edgeStyle=orthogonalEdgeStyle;rounded=0;orthogonalLoop=1;jettySize=auto;html=1;entryX=0;entryY=0.5;entryDx=0;entryDy=0;exitX=0;exitY=0.5;exitDx=0;exitDy=0;" edge="1" parent="2" source="hSSvxzXzrcug1TbI-OG9-62" target="yedIy310Sk6GWdL27OD_-42">
          <mxGeometry relative="1" as="geometry">
            <Array as="points">
              <mxPoint x="39" y="461" />
              <mxPoint x="39" y="221" />
            </Array>
          </mxGeometry>
        </mxCell>
        <mxCell id="hSSvxzXzrcug1TbI-OG9-62" value="エラー内容を&lt;div&gt;確認&lt;/div&gt;" style="rounded=1;whiteSpace=wrap;html=1;arcSize=40;" vertex="1" parent="2">
          <mxGeometry x="78.88" y="441" width="120" height="40" as="geometry" />
        </mxCell>
        <mxCell id="hSSvxzXzrcug1TbI-OG9-94" style="edgeStyle=orthogonalEdgeStyle;rounded=0;orthogonalLoop=1;jettySize=auto;html=1;entryX=0.5;entryY=0;entryDx=0;entryDy=0;" edge="1" parent="2" source="hSSvxzXzrcug1TbI-OG9-92" target="yedIy310Sk6GWdL27OD_-64">
          <mxGeometry relative="1" as="geometry" />
        </mxCell>
        <mxCell id="hSSvxzXzrcug1TbI-OG9-92" value="ホーム画面を表示" style="rounded=1;whiteSpace=wrap;html=1;arcSize=40;" vertex="1" parent="2">
          <mxGeometry x="78.5" y="881" width="120" height="40" as="geometry" />
        </mxCell>
        <mxCell id="yedIy310Sk6GWdL27OD_-64" value="" style="ellipse;html=1;shape=endState;fillColor=#000000;strokeColor=default;" vertex="1" parent="2">
          <mxGeometry x="123.63" y="1006" width="30" height="30" as="geometry" />
        </mxCell>
        <mxCell id="hSSvxzXzrcug1TbI-OG9-96" value="&lt;span style=&quot;font-size: 11px;&quot;&gt;登録ボタンを押下&lt;/span&gt;" style="rounded=1;whiteSpace=wrap;html=1;arcSize=40;" vertex="1" parent="2">
          <mxGeometry x="78" y="281" width="120" height="40" as="geometry" />
        </mxCell>
        <mxCell id="3" value="ECサイト画面" style="swimlane;whiteSpace=wrap;startSize=23;" vertex="1" parent="1">
          <mxGeometry x="441.5" y="39" width="280" height="1081" as="geometry" />
        </mxCell>
        <mxCell id="hSSvxzXzrcug1TbI-OG9-105" style="edgeStyle=orthogonalEdgeStyle;rounded=0;orthogonalLoop=1;jettySize=auto;html=1;entryX=0.5;entryY=0;entryDx=0;entryDy=0;" edge="1" parent="3" source="yedIy310Sk6GWdL27OD_-33" target="hSSvxzXzrcug1TbI-OG9-60">
          <mxGeometry relative="1" as="geometry">
            <Array as="points">
              <mxPoint x="39" y="381" />
              <mxPoint x="39" y="531" />
              <mxPoint x="139" y="531" />
            </Array>
          </mxGeometry>
        </mxCell>
        <mxCell id="yedIy310Sk6GWdL27OD_-33" value="" style="rhombus;whiteSpace=wrap;html=1;" vertex="1" parent="3">
          <mxGeometry x="109" y="361" width="59" height="40" as="geometry" />
        </mxCell>
        <mxCell id="yedIy310Sk6GWdL27OD_-34" value="不正な値である場合" style="text;html=1;align=center;verticalAlign=middle;whiteSpace=wrap;rounded=0;" vertex="1" parent="3">
          <mxGeometry y="351" width="110" height="30" as="geometry" />
        </mxCell>
        <mxCell id="hSSvxzXzrcug1TbI-OG9-101" style="edgeStyle=orthogonalEdgeStyle;rounded=0;orthogonalLoop=1;jettySize=auto;html=1;entryX=0.5;entryY=0;entryDx=0;entryDy=0;" edge="1" parent="3" source="yedIy310Sk6GWdL27OD_-51" target="yedIy310Sk6GWdL27OD_-33">
          <mxGeometry relative="1" as="geometry" />
        </mxCell>
        <mxCell id="yedIy310Sk6GWdL27OD_-51" value="&lt;font style=&quot;font-size: 11px;&quot;&gt;入力値の&lt;br&gt;&lt;/font&gt;&lt;div style=&quot;font-size: 11px;&quot;&gt;&lt;font style=&quot;font-size: 11px;&quot;&gt;バリデーション&lt;/font&gt;&lt;/div&gt;" style="rounded=1;whiteSpace=wrap;html=1;arcSize=40;" vertex="1" parent="3">
          <mxGeometry x="78.5" y="281" width="120" height="40" as="geometry" />
        </mxCell>
        <mxCell id="yedIy310Sk6GWdL27OD_-58" value="ホーム画面を表示" style="rounded=1;whiteSpace=wrap;html=1;arcSize=40;" vertex="1" parent="3">
          <mxGeometry x="78.5" y="881" width="120" height="40" as="geometry" />
        </mxCell>
        <mxCell id="yedIy310Sk6GWdL27OD_-87" value="適正な値である場合" style="text;html=1;align=center;verticalAlign=middle;whiteSpace=wrap;rounded=0;" vertex="1" parent="3">
          <mxGeometry x="148.5" y="401" width="110" height="30" as="geometry" />
        </mxCell>
        <mxCell id="hSSvxzXzrcug1TbI-OG9-55" value="&lt;font style=&quot;font-size: 11px;&quot;&gt;会員登録画面を表示&lt;/font&gt;" style="rounded=1;whiteSpace=wrap;html=1;arcSize=40;" vertex="1" parent="3">
          <mxGeometry x="78.5" y="121" width="120" height="40" as="geometry" />
        </mxCell>
        <mxCell id="hSSvxzXzrcug1TbI-OG9-60" value="&lt;font style=&quot;font-size: 12px;&quot;&gt;エラー内容を表示&lt;/font&gt;" style="rounded=1;whiteSpace=wrap;html=1;arcSize=40;" vertex="1" parent="3">
          <mxGeometry x="78.5" y="561" width="120" height="40" as="geometry" />
        </mxCell>
        <mxCell id="hSSvxzXzrcug1TbI-OG9-3" value="APIサーバー" style="swimlane;whiteSpace=wrap;startSize=23;" vertex="1" parent="1">
          <mxGeometry x="721.5" y="39" width="280" height="1081" as="geometry" />
        </mxCell>
        <mxCell id="hSSvxzXzrcug1TbI-OG9-66" style="edgeStyle=orthogonalEdgeStyle;rounded=0;orthogonalLoop=1;jettySize=auto;html=1;" edge="1" parent="hSSvxzXzrcug1TbI-OG9-3" source="hSSvxzXzrcug1TbI-OG9-58">
          <mxGeometry relative="1" as="geometry">
            <mxPoint x="138.5" y="521" as="targetPoint" />
          </mxGeometry>
        </mxCell>
        <mxCell id="hSSvxzXzrcug1TbI-OG9-58" value="&lt;font style=&quot;font-size: 11px;&quot;&gt;入力値の&lt;br&gt;&lt;/font&gt;&lt;div style=&quot;font-size: 11px;&quot;&gt;&lt;font style=&quot;font-size: 11px;&quot;&gt;バリデーション&lt;/font&gt;&lt;/div&gt;" style="rounded=1;whiteSpace=wrap;html=1;arcSize=40;" vertex="1" parent="hSSvxzXzrcug1TbI-OG9-3">
          <mxGeometry x="78.5" y="441" width="120" height="40" as="geometry" />
        </mxCell>
        <mxCell id="hSSvxzXzrcug1TbI-OG9-70" style="edgeStyle=orthogonalEdgeStyle;rounded=0;orthogonalLoop=1;jettySize=auto;html=1;entryX=0.5;entryY=0;entryDx=0;entryDy=0;" edge="1" parent="hSSvxzXzrcug1TbI-OG9-3" source="hSSvxzXzrcug1TbI-OG9-65" target="hSSvxzXzrcug1TbI-OG9-69">
          <mxGeometry relative="1" as="geometry" />
        </mxCell>
        <mxCell id="hSSvxzXzrcug1TbI-OG9-74" style="edgeStyle=orthogonalEdgeStyle;rounded=0;orthogonalLoop=1;jettySize=auto;html=1;entryX=1;entryY=0.5;entryDx=0;entryDy=0;" edge="1" parent="hSSvxzXzrcug1TbI-OG9-3" source="hSSvxzXzrcug1TbI-OG9-65" target="hSSvxzXzrcug1TbI-OG9-72">
          <mxGeometry relative="1" as="geometry">
            <Array as="points">
              <mxPoint x="219" y="542" />
              <mxPoint x="219" y="741" />
            </Array>
          </mxGeometry>
        </mxCell>
        <mxCell id="hSSvxzXzrcug1TbI-OG9-65" value="" style="rhombus;whiteSpace=wrap;html=1;" vertex="1" parent="hSSvxzXzrcug1TbI-OG9-3">
          <mxGeometry x="109" y="521" width="59" height="40" as="geometry" />
        </mxCell>
        <mxCell id="hSSvxzXzrcug1TbI-OG9-67" value="適正な値である場合" style="text;html=1;align=center;verticalAlign=middle;whiteSpace=wrap;rounded=0;" vertex="1" parent="hSSvxzXzrcug1TbI-OG9-3">
          <mxGeometry x="166.88" y="511" width="110" height="30" as="geometry" />
        </mxCell>
        <mxCell id="hSSvxzXzrcug1TbI-OG9-68" value="不正な値である場合" style="text;html=1;align=center;verticalAlign=middle;whiteSpace=wrap;rounded=0;" vertex="1" parent="hSSvxzXzrcug1TbI-OG9-3">
          <mxGeometry x="18.5" y="561" width="110" height="31" as="geometry" />
        </mxCell>
        <mxCell id="hSSvxzXzrcug1TbI-OG9-69" value="&lt;span style=&quot;font-size: 11px;&quot;&gt;エラーを返却&lt;/span&gt;" style="rounded=1;whiteSpace=wrap;html=1;arcSize=40;" vertex="1" parent="hSSvxzXzrcug1TbI-OG9-3">
          <mxGeometry x="78.5" y="640.5" width="120" height="40" as="geometry" />
        </mxCell>
        <mxCell id="hSSvxzXzrcug1TbI-OG9-72" value="&lt;span style=&quot;font-size: 11px;&quot;&gt;ユーザー情報を登録&lt;/span&gt;" style="rounded=1;whiteSpace=wrap;html=1;arcSize=40;" vertex="1" parent="hSSvxzXzrcug1TbI-OG9-3">
          <mxGeometry x="78.5" y="721" width="120" height="40" as="geometry" />
        </mxCell>
        <mxCell id="hSSvxzXzrcug1TbI-OG9-89" value="&lt;span style=&quot;font-size: 11px;&quot;&gt;登録完了のレスポンス&lt;/span&gt;&lt;div&gt;&lt;span style=&quot;font-size: 11px;&quot;&gt;を返却&lt;/span&gt;&lt;/div&gt;" style="rounded=1;whiteSpace=wrap;html=1;arcSize=40;" vertex="1" parent="hSSvxzXzrcug1TbI-OG9-3">
          <mxGeometry x="78.5" y="881" width="120" height="40" as="geometry" />
        </mxCell>
        <mxCell id="hSSvxzXzrcug1TbI-OG9-20" value="データベース" style="swimlane;whiteSpace=wrap;startSize=23;fontStyle=2" vertex="1" parent="1">
          <mxGeometry x="1001.5" y="39" width="280" height="1081" as="geometry" />
        </mxCell>
        <mxCell id="hSSvxzXzrcug1TbI-OG9-110" style="edgeStyle=orthogonalEdgeStyle;rounded=0;orthogonalLoop=1;jettySize=auto;html=1;entryX=0.5;entryY=0;entryDx=0;entryDy=0;" edge="1" parent="hSSvxzXzrcug1TbI-OG9-20" source="hSSvxzXzrcug1TbI-OG9-73" target="hSSvxzXzrcug1TbI-OG9-109">
          <mxGeometry relative="1" as="geometry" />
        </mxCell>
        <mxCell id="hSSvxzXzrcug1TbI-OG9-73" value="&lt;span style=&quot;font-size: 11px;&quot;&gt;ユーザー情報を登録&lt;/span&gt;" style="rounded=1;whiteSpace=wrap;html=1;arcSize=40;" vertex="1" parent="hSSvxzXzrcug1TbI-OG9-20">
          <mxGeometry x="78.5" y="801" width="120" height="40" as="geometry" />
        </mxCell>
        <mxCell id="hSSvxzXzrcug1TbI-OG9-109" value="&lt;span style=&quot;font-size: 11px;&quot;&gt;登録完了のレスポンスを返却&lt;/span&gt;" style="rounded=1;whiteSpace=wrap;html=1;arcSize=40;" vertex="1" parent="hSSvxzXzrcug1TbI-OG9-20">
          <mxGeometry x="78.5" y="881" width="120" height="40" as="geometry" />
        </mxCell>
        <mxCell id="hSSvxzXzrcug1TbI-OG9-56" style="edgeStyle=orthogonalEdgeStyle;rounded=0;orthogonalLoop=1;jettySize=auto;html=1;entryX=0;entryY=0.5;entryDx=0;entryDy=0;" edge="1" parent="1" source="hSSvxzXzrcug1TbI-OG9-38" target="hSSvxzXzrcug1TbI-OG9-55">
          <mxGeometry relative="1" as="geometry" />
        </mxCell>
        <mxCell id="hSSvxzXzrcug1TbI-OG9-71" style="edgeStyle=orthogonalEdgeStyle;rounded=0;orthogonalLoop=1;jettySize=auto;html=1;entryX=0.5;entryY=1;entryDx=0;entryDy=0;" edge="1" parent="1" source="hSSvxzXzrcug1TbI-OG9-69" target="hSSvxzXzrcug1TbI-OG9-60">
          <mxGeometry relative="1" as="geometry" />
        </mxCell>
        <mxCell id="hSSvxzXzrcug1TbI-OG9-75" style="edgeStyle=orthogonalEdgeStyle;rounded=0;orthogonalLoop=1;jettySize=auto;html=1;entryX=0;entryY=0.5;entryDx=0;entryDy=0;" edge="1" parent="1" source="hSSvxzXzrcug1TbI-OG9-72" target="hSSvxzXzrcug1TbI-OG9-73">
          <mxGeometry relative="1" as="geometry">
            <Array as="points">
              <mxPoint x="860" y="860" />
            </Array>
          </mxGeometry>
        </mxCell>
        <mxCell id="hSSvxzXzrcug1TbI-OG9-91" style="edgeStyle=orthogonalEdgeStyle;rounded=0;orthogonalLoop=1;jettySize=auto;html=1;entryX=1;entryY=0.5;entryDx=0;entryDy=0;" edge="1" parent="1" source="hSSvxzXzrcug1TbI-OG9-89" target="yedIy310Sk6GWdL27OD_-58">
          <mxGeometry relative="1" as="geometry" />
        </mxCell>
        <mxCell id="hSSvxzXzrcug1TbI-OG9-93" style="edgeStyle=orthogonalEdgeStyle;rounded=0;orthogonalLoop=1;jettySize=auto;html=1;entryX=1;entryY=0.5;entryDx=0;entryDy=0;" edge="1" parent="1" source="yedIy310Sk6GWdL27OD_-58" target="hSSvxzXzrcug1TbI-OG9-92">
          <mxGeometry relative="1" as="geometry" />
        </mxCell>
        <mxCell id="hSSvxzXzrcug1TbI-OG9-95" style="edgeStyle=orthogonalEdgeStyle;rounded=0;orthogonalLoop=1;jettySize=auto;html=1;entryX=1;entryY=0.5;entryDx=0;entryDy=0;" edge="1" parent="1" source="hSSvxzXzrcug1TbI-OG9-55" target="yedIy310Sk6GWdL27OD_-42">
          <mxGeometry relative="1" as="geometry">
            <Array as="points">
              <mxPoint x="580" y="260" />
            </Array>
          </mxGeometry>
        </mxCell>
        <mxCell id="hSSvxzXzrcug1TbI-OG9-98" style="edgeStyle=orthogonalEdgeStyle;rounded=0;orthogonalLoop=1;jettySize=auto;html=1;entryX=0;entryY=0.5;entryDx=0;entryDy=0;" edge="1" parent="1" source="hSSvxzXzrcug1TbI-OG9-96" target="yedIy310Sk6GWdL27OD_-51">
          <mxGeometry relative="1" as="geometry" />
        </mxCell>
        <mxCell id="hSSvxzXzrcug1TbI-OG9-106" style="edgeStyle=orthogonalEdgeStyle;rounded=0;orthogonalLoop=1;jettySize=auto;html=1;entryX=0;entryY=0.5;entryDx=0;entryDy=0;" edge="1" parent="1" source="hSSvxzXzrcug1TbI-OG9-103" target="hSSvxzXzrcug1TbI-OG9-58">
          <mxGeometry relative="1" as="geometry" />
        </mxCell>
        <mxCell id="hSSvxzXzrcug1TbI-OG9-103" value="&lt;div&gt;&lt;font style=&quot;font-size: 12px;&quot;&gt;ユーザー登録&lt;/font&gt;&lt;/div&gt;&lt;font style=&quot;font-size: 12px;&quot;&gt;APIリクエストを送信&lt;/font&gt;" style="rounded=1;whiteSpace=wrap;html=1;arcSize=40;" vertex="1" parent="1">
          <mxGeometry x="520.25" y="480.5" width="120" height="40" as="geometry" />
        </mxCell>
        <mxCell id="hSSvxzXzrcug1TbI-OG9-104" style="edgeStyle=orthogonalEdgeStyle;rounded=0;orthogonalLoop=1;jettySize=auto;html=1;entryX=0.5;entryY=0;entryDx=0;entryDy=0;" edge="1" parent="1" source="yedIy310Sk6GWdL27OD_-33" target="hSSvxzXzrcug1TbI-OG9-103">
          <mxGeometry relative="1" as="geometry" />
        </mxCell>
        <mxCell id="hSSvxzXzrcug1TbI-OG9-108" style="edgeStyle=orthogonalEdgeStyle;rounded=0;orthogonalLoop=1;jettySize=auto;html=1;entryX=0.5;entryY=1;entryDx=0;entryDy=0;" edge="1" parent="1" source="hSSvxzXzrcug1TbI-OG9-60" target="hSSvxzXzrcug1TbI-OG9-62">
          <mxGeometry relative="1" as="geometry" />
        </mxCell>
        <mxCell id="hSSvxzXzrcug1TbI-OG9-111" style="edgeStyle=orthogonalEdgeStyle;rounded=0;orthogonalLoop=1;jettySize=auto;html=1;entryX=1;entryY=0.5;entryDx=0;entryDy=0;" edge="1" parent="1" source="hSSvxzXzrcug1TbI-OG9-109" target="hSSvxzXzrcug1TbI-OG9-89">
          <mxGeometry relative="1" as="geometry" />
        </mxCell>
      </root>
    </mxGraphModel>
  </diagram>
</mxfile>
